<svg width="206" height="209" viewBox="0 0 206 209" fill="none" xmlns="http://www.w3.org/2000/svg">
<g clip-path="url(#clip0_125_382)">
<path d="M30.1645 190.626C-10.0405 167.409 -10.0405 129.759 30.1645 106.541C70.3694 83.3235 135.585 83.3235 175.79 106.541C215.995 129.759 215.995 167.409 175.79 190.626C135.585 213.844 70.3694 213.844 30.1645 190.626Z" fill="#FAFAFA"/>
<path d="M138.991 202.683L91.0324 127.876L55.0855 148.673L44.2835 153.828L9.05371 174.715L138.991 202.683Z" fill="#E0E0E0"/>
<path d="M196.095 191.791L162.389 139.171L137.109 153.828L129.534 157.458L104.793 172.115L196.095 191.791Z" fill="#E0E0E0"/>
<path d="M152.035 113.892C151.452 113.668 150.78 113.623 150.332 113.623C149.794 113.578 149.614 113.489 149.48 113.354C148.091 111.427 145.849 111.427 144.55 112.009C144.191 110.665 142.577 109.544 140.785 109.992C140.829 108.244 138.544 106.452 136.571 106.048C134.644 105.69 132.986 105.869 131.955 107.169C130.745 104.928 126.173 104.39 123.752 105.6C122.363 106.317 121.153 107.034 120.615 108.379C120.256 109.231 120.122 109.813 120.122 110.979C119.136 110.172 117.208 109.948 115.953 110.486C114.564 111.068 114.474 112.099 114.429 113.175C113.085 112.861 112.144 113.085 111.919 113.175C111.068 113.444 110.575 114.161 110.709 114.699C110.037 114.654 108.379 115.281 108.603 115.999C108.827 116.805 110.709 116.671 111.426 116.671C112.009 116.626 112.771 116.447 113.399 116.312C113.578 116.402 114.116 116.492 114.429 116.492C115.64 116.447 116.133 115.954 116.312 115.506C116.94 116.716 119.001 117.612 120.48 117.971C123.259 118.643 127.159 118.105 128.817 115.999C128.997 116.357 129.31 116.716 129.669 116.985C130.341 117.523 131.282 117.881 132.268 117.971C133.389 118.06 136.437 118.15 137.289 116.312C137.916 117.523 140.65 118.016 142.712 117.657C143.474 117.523 144.325 117.254 144.998 116.895C145.536 116.626 145.849 116.357 146.298 116.088C146.701 115.819 146.88 115.819 147.418 115.999C148.852 116.402 150.511 116.536 151.9 115.909C152.886 115.326 153.111 114.34 152.035 113.892Z" fill="#EBEBEB"/>
<path d="M189.147 146.343L188.385 144.416C186.682 144.774 184.485 144.64 183.006 142.399L182.827 142.13L186.323 139.53L186.502 139.844C186.682 140.157 187.354 141.054 188.699 140.516C189.057 140.382 189.326 140.202 189.461 139.978C189.595 139.799 189.595 139.575 189.505 139.306C189.237 138.589 188.475 138.678 187.085 138.902C186.771 138.947 186.413 138.992 186.099 139.037C184.082 139.216 181.886 139.082 180.81 136.348C179.914 134.151 180.631 132.134 182.737 130.835L181.975 128.907L185.203 127.607L185.965 129.535C188.071 129.131 189.819 129.759 191.029 131.328L191.254 131.597L187.892 134.107L187.713 133.793C187.175 132.941 186.278 133.076 185.651 133.345C184.889 133.658 184.62 134.062 184.799 134.51C185.068 135.182 185.696 135.137 187.578 134.869C189.505 134.644 192.419 134.286 193.674 137.379C194.57 139.62 193.808 141.637 191.612 143.071L192.374 144.998L189.147 146.343ZM188.788 143.609L189.505 145.446L191.433 144.684L190.716 142.847L190.985 142.712C192.195 141.995 194.077 140.382 193.002 137.737C191.971 135.137 189.55 135.406 187.623 135.675C185.651 135.944 184.575 136.079 184.082 134.913C183.948 134.6 183.679 133.479 185.337 132.852C186.413 132.403 187.399 132.583 188.026 133.255L190.267 131.597C189.192 130.386 187.713 129.983 185.83 130.386L185.561 130.431L184.844 128.593L182.917 129.355L183.634 131.193L183.365 131.328C181.931 132.134 180.496 133.658 181.482 136.168C182.334 138.32 183.948 138.634 186.054 138.409C186.368 138.365 186.727 138.32 187.04 138.275C188.43 138.096 189.73 137.872 190.223 139.127C190.402 139.575 190.357 140.023 190.133 140.426C189.909 140.74 189.55 141.054 189.057 141.233C187.757 141.726 186.771 141.233 186.234 140.561L183.858 142.309C185.203 144.057 187.175 144.057 188.609 143.698L188.788 143.609Z" fill="#E0E0E0"/>
<path d="M35.8128 121.243L35.4094 122.587L33.6165 122.049L34.0199 120.705C32.8546 120.167 31.8237 119.181 31.9581 117.522L34.4233 117.567C34.3785 118.06 34.5578 118.822 35.499 119.091C36.0817 119.27 36.5748 119.136 36.7092 118.598C36.9333 117.747 35.9473 117.388 34.8715 116.76C33.751 116.043 32.7649 115.147 33.258 113.399C33.7062 111.83 34.9164 111.203 36.5299 111.427L36.9333 110.082L38.7262 110.62L38.3228 111.965C39.6674 112.592 40.3398 113.623 40.3398 114.878L37.9642 114.833C38.009 114.206 37.6953 113.713 36.8885 113.488C36.1265 113.264 35.768 113.533 35.6335 113.937C35.4542 114.609 35.9472 114.878 37.0678 115.55C38.2331 116.267 39.7571 117.164 39.1744 119.136C38.771 120.884 37.4264 121.467 35.8128 121.243Z" fill="#E0E0E0"/>
<path d="M131.775 145.806C131.686 145.806 131.596 145.761 131.506 145.716C131.148 145.447 130.744 145.223 130.386 144.999C130.162 144.864 130.117 144.595 130.251 144.371C130.386 144.147 130.655 144.102 130.879 144.237C131.237 144.461 131.641 144.73 131.999 144.999C132.224 145.133 132.268 145.402 132.134 145.626C132.044 145.761 131.91 145.806 131.775 145.806Z" fill="#455A64"/>
<path d="M128.279 143.609C128.19 143.609 128.1 143.609 128.055 143.564C127.249 143.071 126.442 142.623 125.635 142.174C125.411 142.04 125.321 141.771 125.456 141.547C125.59 141.323 125.859 141.233 126.083 141.368C126.89 141.816 127.697 142.264 128.504 142.757C128.728 142.892 128.772 143.161 128.638 143.385C128.593 143.519 128.414 143.609 128.279 143.609ZM123.349 140.919C123.304 140.919 123.215 140.919 123.17 140.875C122.318 140.471 121.467 140.068 120.66 139.709C120.436 139.62 120.346 139.351 120.436 139.127C120.525 138.903 120.794 138.813 121.018 138.903C121.87 139.261 122.722 139.664 123.573 140.068C123.797 140.158 123.887 140.426 123.797 140.651C123.708 140.83 123.528 140.919 123.349 140.919ZM118.239 138.678C118.195 138.678 118.15 138.678 118.105 138.634C117.208 138.32 116.357 138.006 115.46 137.737C115.236 137.648 115.102 137.423 115.147 137.199C115.236 136.975 115.46 136.841 115.685 136.886C116.581 137.154 117.477 137.468 118.374 137.782C118.598 137.872 118.732 138.141 118.643 138.365C118.598 138.589 118.419 138.678 118.239 138.678ZM112.861 137.065C112.816 137.065 112.771 137.065 112.771 137.065C111.875 136.841 110.978 136.661 110.037 136.527C109.813 136.482 109.634 136.258 109.678 136.034C109.723 135.81 109.947 135.631 110.171 135.675C111.113 135.81 112.009 136.034 112.95 136.213C113.175 136.258 113.354 136.527 113.264 136.751C113.264 136.93 113.085 137.065 112.861 137.065ZM93.4082 136.617C93.1841 136.617 93.0048 136.437 92.96 136.213C92.9152 135.989 93.0945 135.72 93.3634 135.72C94.3046 135.586 95.2459 135.496 96.1423 135.362C96.4113 135.362 96.5905 135.496 96.6354 135.765C96.6802 135.989 96.5009 136.213 96.232 136.258C95.3355 136.348 94.3943 136.482 93.453 136.572C93.453 136.617 93.453 136.617 93.4082 136.617ZM107.348 136.168H107.303C106.406 136.079 105.465 136.034 104.524 135.989C104.255 135.989 104.076 135.765 104.076 135.541C104.076 135.272 104.3 135.093 104.524 135.093C105.465 135.137 106.406 135.182 107.348 135.272C107.572 135.317 107.751 135.496 107.751 135.765C107.796 135.989 107.572 136.168 107.348 136.168ZM98.9661 136.034C98.742 136.034 98.5179 135.855 98.5179 135.631C98.5179 135.362 98.6972 135.182 98.9213 135.138C99.8625 135.093 100.804 135.048 101.745 135.048C102.014 135.048 102.193 135.227 102.193 135.496C102.193 135.765 102.014 135.944 101.745 135.944C100.893 135.944 99.9522 135.989 98.9661 136.034Z" fill="#455A64"/>
<path d="M89.2842 137.289C89.0601 137.289 88.8808 137.154 88.836 136.93C88.7912 136.706 88.9705 136.437 89.1946 136.392C89.6428 136.303 90.091 136.213 90.5392 136.168C90.7633 136.123 91.0323 136.303 91.0771 136.527C91.1219 136.751 90.9426 137.02 90.7185 137.064C90.2703 137.154 89.8221 137.199 89.4187 137.289C89.3739 137.244 89.3291 137.289 89.2842 137.289Z" fill="#455A64"/>
<path d="M196.095 182.379L137.11 144.415L135.496 151.138L196.095 182.379Z" fill="#F0F0F0"/>
<path d="M147.553 151.138L147.688 157.548L135.496 151.138L137.11 144.415L147.553 151.138Z" fill="#E0E0E0"/>
<path d="M137.11 144.415L135.496 151.138L135.899 151.318L137.603 144.415H137.11Z" fill="#455A64"/>
<path d="M104.793 162.703L196.095 182.379L129.534 148.046L104.793 162.703Z" fill="white"/>
<path d="M104.793 162.703L142.04 154.5L129.534 148.046L104.793 162.703Z" fill="#F5F5F5"/>
<path d="M129.534 148.449L193.585 181.483L105.734 162.568L129.534 148.449ZM129.534 148.046L104.793 162.703L196.139 182.379L129.534 148.046Z" fill="#455A64"/>
<path d="M196.095 182.379L137.109 144.415L162.389 129.759L196.095 182.379Z" fill="white"/>
<path d="M147.553 151.139L162.389 129.759L137.109 144.415L147.553 151.139Z" fill="#F5F5F5"/>
<path d="M162.254 130.252L194.929 181.214L137.782 144.415L162.254 130.252ZM162.389 129.759L137.109 144.415L196.095 182.379L162.389 129.759Z" fill="#455A64"/>
<path d="M49.2138 142.757C49.1242 142.757 49.0345 142.712 48.9449 142.667C48.5863 142.398 48.1829 142.174 47.8244 141.95C47.6002 141.815 47.5554 141.547 47.6899 141.322C47.8244 141.098 48.0933 141.053 48.3174 141.188C48.676 141.412 49.0794 141.681 49.4379 141.95C49.662 142.084 49.7069 142.353 49.5724 142.577C49.5276 142.667 49.3931 142.757 49.2138 142.757Z" fill="#455A64"/>
<path d="M45.7179 140.516C45.6282 140.516 45.5386 140.516 45.4938 140.471C44.687 139.978 43.8802 139.53 43.0734 139.082C42.8493 138.947 42.7596 138.678 42.8941 138.454C43.0286 138.23 43.2975 138.141 43.5216 138.275C44.3284 138.723 45.1352 139.171 45.942 139.664C46.1661 139.799 46.2109 140.068 46.0764 140.292C46.0316 140.471 45.8972 140.516 45.7179 140.516ZM40.8323 137.827C40.7875 137.827 40.6979 137.827 40.653 137.782C39.8014 137.379 38.9498 136.975 38.143 136.617C37.9189 136.527 37.8293 136.258 37.9189 136.034C38.0086 135.81 38.2775 135.72 38.5016 135.81C39.3532 136.168 40.2048 136.572 41.0564 136.975C41.2805 137.065 41.3702 137.334 41.2805 137.558C41.1461 137.737 41.0116 137.827 40.8323 137.827ZM35.6778 135.631C35.633 135.631 35.5882 135.631 35.5434 135.586C34.6469 135.272 33.7953 134.958 32.8989 134.689C32.6748 134.6 32.5403 134.376 32.5851 134.151C32.6748 133.927 32.8989 133.793 33.123 133.838C34.0194 134.107 34.9159 134.42 35.8123 134.734C36.0364 134.824 36.1709 135.093 36.0812 135.317C36.0364 135.496 35.8571 135.631 35.6778 135.631ZM30.3441 134.017C30.2992 134.017 30.2544 134.017 30.2544 134.017C29.358 133.793 28.4616 133.614 27.5203 133.479C27.2962 133.434 27.1169 133.21 27.1617 132.986C27.2066 132.762 27.4307 132.583 27.6548 132.627C28.596 132.762 29.4925 132.986 30.4337 133.165C30.6578 133.21 30.8371 133.479 30.7475 133.703C30.7475 133.883 30.5234 134.017 30.3441 134.017ZM10.8467 133.524C10.6226 133.524 10.4433 133.345 10.3985 133.121C10.3536 132.896 10.5329 132.627 10.8019 132.627C11.7431 132.493 12.6844 132.403 13.5808 132.269C13.8497 132.269 14.029 132.403 14.0738 132.672C14.1187 132.896 13.9394 133.121 13.6704 133.165C12.774 133.255 11.8328 133.389 10.8915 133.479C10.8915 133.524 10.8915 133.524 10.8467 133.524ZM24.831 133.076H24.7862C23.8898 132.986 22.9485 132.941 22.0073 132.896C21.7383 132.896 21.559 132.672 21.559 132.448C21.559 132.179 21.7831 132 22.0073 132C22.9485 132.045 23.8898 132.09 24.831 132.179C25.0551 132.224 25.2344 132.403 25.2344 132.672C25.2344 132.941 25.0551 133.076 24.831 133.076ZM16.4494 132.986C16.2253 132.986 16.0012 132.807 16.0012 132.583C16.0012 132.314 16.1804 132.134 16.4046 132.09C17.3458 132.045 18.2871 132 19.2283 132C19.4524 132 19.6765 132.179 19.6765 132.448C19.6765 132.717 19.4972 132.896 19.2283 132.896C18.3319 132.896 17.3906 132.896 16.4494 132.986Z" fill="#455A64"/>
<path d="M6.76763 134.196C6.54352 134.196 6.36424 134.061 6.31941 133.837C6.27459 133.613 6.45388 133.344 6.67799 133.299C7.1262 133.21 7.57442 133.12 8.02263 133.075C8.24674 133.03 8.51567 133.21 8.56049 133.434C8.60531 133.658 8.42603 133.927 8.20192 133.972C7.7537 134.061 7.30549 134.106 6.90209 134.196C6.81245 134.196 6.81245 134.196 6.76763 134.196Z" fill="#455A64"/>
<path d="M9.05371 165.303L138.991 193.272L44.2835 144.416L9.05371 165.303Z" fill="#00BA82"/>
<path d="M138.992 193.271L55.0859 139.261L91.0329 118.464L138.992 193.271Z" fill="#00BA82"/>
<path opacity="0.2" d="M9.05371 165.303L62.0776 153.604L44.2835 144.416L9.05371 165.303Z" fill="black"/>
<path opacity="0.2" d="M69.9219 148.808L91.0328 118.464L55.0859 139.261L69.9219 148.808Z" fill="black"/>
<path d="M138.992 193.271L55.0857 139.261L52.7998 148.808L138.992 193.271Z" fill="#016A4A"/>
<path opacity="0.2" d="M138.992 193.271L55.0857 139.261L52.7998 148.808L138.992 193.271Z" fill="#00BA82"/>
<path opacity="0.2" d="M69.9216 148.808L69.7872 157.593L52.7998 148.808L55.0857 139.261L69.9216 148.808Z" fill="black"/>
<path d="M75.9717 148.583L77.4956 147.821L75.9717 147.418V148.583Z" fill="#263238"/>
<path d="M91.3014 151.228C91.3014 151.228 73.0141 143.294 72.8349 144.505C72.79 144.773 72.79 145.042 72.8349 145.222L72.79 145.177L73.1486 147.463C73.1486 147.463 74.4484 148.538 75.9724 148.628C75.9724 148.538 75.9724 147.821 75.9724 147.463C76.4654 147.642 76.9585 147.911 77.586 148.27C78.7513 149.031 79.5133 150.376 80.8131 151.9C81.7095 153.021 83.3231 153.558 85.7435 153.827C88.2983 154.141 90.5394 153.603 91.1669 152.931C91.6599 152.393 91.391 151.362 91.3014 151.228Z" fill="#263238"/>
<path d="M90.7631 150.78C90.5838 150.601 89.9115 149.884 89.0599 149.122C88.2979 148.449 87.3567 147.598 86.4154 146.925C86.012 146.656 85.4293 146.208 85.1156 145.85C84.8018 145.491 84.4881 145.177 84.2192 144.819C83.3227 143.698 82.6056 142.443 81.9781 141.098C81.6643 140.471 81.1265 139.126 81.2609 136.572C81.4402 132.717 81.7092 131.327 81.7092 128.817L73.0586 130.162C73.3275 131.551 73.6413 134.644 73.8206 136.213C74.0447 138.633 74.4032 138.813 73.5068 141.233C73.2379 141.95 72.8345 142.622 72.8345 143.384C72.7897 144.595 73.7757 145.67 74.8515 146.253C75.7479 146.746 76.7788 146.925 77.6304 147.463C78.5268 148.001 79.244 148.853 79.9163 149.659C80.5438 150.421 81.0368 151.363 81.8884 151.9C82.8297 152.483 83.7709 152.662 84.8467 152.887C86.1017 153.111 87.7601 153.111 88.8358 153.021C90.6735 152.842 92.0629 152.125 90.7631 150.78Z" fill="#FFA8A7"/>
<path d="M89.7322 149.48C88.9254 148.853 87.8049 147.912 86.4602 146.836C86.1465 146.701 84.9363 146.432 83.6365 147.15C80.9472 148.629 80.5438 150.646 80.5438 150.646C80.5438 150.646 81.1265 151.99 82.7849 152.528C85.9224 153.828 91.4802 153.335 91.5251 151.901C91.5251 150.959 90.6735 150.242 89.7322 149.48ZM73.5964 140.695C73.5964 140.695 73.4171 141.188 72.9689 142.13C72.5207 143.071 72.4311 144.012 73.0586 144.909C73.8654 146.119 74.8514 146.477 75.8375 146.746C76.5995 143.967 74.6721 141.278 73.5964 140.695Z" fill="#37474F"/>
<path d="M57.909 147.732C58.4021 148.584 57.6849 151.677 57.7746 153.873C57.8194 155.89 58.178 159.027 57.6401 161.403C57.1023 163.823 55.0405 166.333 52.3063 164.047C50.6031 162.658 49.9756 161 49.7963 158.086C49.6619 156.069 50.5135 153.29 51.2755 150.825C52.1271 147.957 52.4856 146.433 52.4856 146.433L57.909 147.732Z" fill="#263238"/>
<path d="M52.5303 132.807C52.2613 137.513 52.7096 140.83 52.7096 143.833C52.6647 145.222 52.5303 146.432 52.2165 147.867C51.7683 149.794 51.0512 152.438 50.7374 153.694C50.2892 155.442 49.9754 156.517 50.5581 158.489C50.603 158.624 50.6478 158.803 50.7374 158.938C51.5442 160.551 53.6508 161.806 54.3231 161.627C54.5024 161.941 54.9955 162.165 55.5333 162.075C55.623 162.075 55.6678 162.03 55.7574 162.03C55.8471 161.985 55.8919 161.985 55.9815 161.941C56.4298 161.717 56.878 161.268 57.1469 160.506C57.1917 160.372 57.2365 160.237 57.2814 160.103C57.8192 157.683 57.5055 156.114 57.4607 155.173C57.4158 154.097 57.5055 152.707 57.6399 150.915C57.7744 149.167 58.3123 143.609 58.9846 141.009C59.4776 139.171 60.1051 136.885 60.7326 134.42L52.5303 132.807Z" fill="#FFA8A7"/>
<path d="M50.2443 155.89C51.9476 155.173 56.8331 155.173 57.5503 157.549C57.5054 159.79 57.5054 161.314 56.0712 163.196C54.1438 165.751 51.7683 162.972 50.827 161.179C49.9754 159.476 50.0202 157.1 50.2443 155.89Z" fill="#37474F"/>
<path d="M60.6432 66.6499C58.178 70.8631 54.8612 76.7348 54.5474 86.2369C54.144 98.9663 53.8751 108.065 53.7855 109.589C53.6958 111.113 52.6649 113.892 51.6789 121.422C50.6928 128.952 51.7685 143.34 51.7685 143.34C51.7685 143.34 52.6201 145.043 55.4887 145.401C58.1332 145.715 59.3882 144.46 59.3882 144.46C59.3882 144.46 63.6014 124.29 64.7219 119.808C65.8425 115.281 69.742 95.515 69.742 95.515L71.1762 107.706C71.1762 107.706 70.235 111.83 70.8625 118.508C71.49 125.142 73.5966 137.961 73.5966 137.961C73.5966 137.961 74.8068 139.216 77.6306 139.126C80.2302 139.037 81.53 137.602 81.53 137.602C81.53 137.602 83.9952 112.323 84.2193 104.793C84.4434 97.3079 84.2193 78.5724 82.1575 67.3671L60.6432 66.6499Z" fill="#37474F"/>
<path d="M72.0275 83.5475L69.6968 95.5597L71.1311 107.751L71.1759 96.1872L73.4618 84.7577C75.2995 84.3543 79.9609 81.2168 80.3643 78.1689C77.8543 82.0684 72.0275 83.5475 72.0275 83.5475ZM58.4914 128.683C57.7294 132.582 57.0123 136.482 56.3848 140.426C57.326 136.571 58.2673 132.717 59.1189 128.817C59.9705 124.918 60.8221 121.063 61.6289 117.164C62.3909 113.264 63.3769 104.39 63.8251 100.445C64.2734 96.501 64.5871 92.5567 64.9009 88.5676C64.3182 92.5119 63.7355 96.4113 63.1976 100.356C62.615 104.3 61.6289 113.13 60.8221 116.984C60.0153 120.884 59.2533 124.783 58.4914 128.683ZM80.7229 100.535C80.7677 102.238 80.8125 103.986 80.7229 105.689C80.6332 107.393 80.4988 109.141 80.3643 110.844L79.9609 115.998C79.692 119.45 79.4679 122.901 79.2886 126.352C79.7816 122.946 80.2298 119.494 80.5884 116.043C80.947 112.592 81.3056 109.185 81.5297 105.689C81.6193 102.193 81.3952 98.7421 81.2159 95.2908C80.9918 91.8395 80.6781 88.3883 80.2298 84.937L80.5884 95.2908C80.6332 97.0837 80.6781 98.7869 80.7229 100.535Z" fill="#263238"/>
<path d="M61.8991 23.9347C59.4339 25.2345 59.2098 27.2963 59.0753 32.2715C58.8512 41.2806 56.0723 51.5448 56.0723 51.5448L76.6902 51.7689L77.8107 31.1509C77.8107 31.1509 79.6484 28.9547 79.5588 26.5791C79.4691 24.2036 78.1693 21.0213 73.8216 19.9007C70.1462 18.9146 63.0644 19.2732 61.8991 23.9347Z" fill="#263238"/>
<path d="M100.804 49.5726C99.683 44.5526 96.8144 37.6053 95.4698 34.2885C95.1112 33.3472 94.6182 31.3302 94.4389 30.5234C94.0803 28.8202 93.7666 27.8342 93.0046 26.5791C92.5115 25.7275 92.1082 24.9208 90.8083 23.8002C90.4498 23.4865 89.9119 23.4865 89.7326 23.6657C89.3292 23.2624 89.0603 23.0831 88.6569 22.9486C88.2983 22.859 87.9397 22.9038 87.5812 22.9038C86.9985 22.859 86.6847 22.5452 86.3262 22.1418C86.1469 21.9625 85.9676 21.7384 85.7435 21.6488C85.3401 21.5143 85.1608 21.7832 85.0712 22.097C84.9367 22.59 85.0263 23.0831 85.2056 23.5313C85.4746 24.2932 85.9676 24.8311 86.371 25.5483C86.9537 26.624 87.8501 27.9686 87.7605 29.1788C87.7605 29.4477 87.6708 29.9408 87.3571 29.627C86.9537 29.1788 86.5503 28.6858 86.1021 28.3272C85.609 27.9686 84.9815 27.6997 84.3988 27.8342C84.2196 27.879 84.0403 27.9238 83.9058 28.1031C83.7713 28.3272 83.861 28.4617 83.9954 28.6409C84.1299 28.8202 84.2196 28.9995 84.354 29.1788C84.5781 29.5822 84.8022 29.9408 85.0263 30.3442C86.371 32.5852 86.9537 33.5265 88.881 35.0504C89.1948 35.2745 90.136 35.8572 90.8531 37.8294C91.5703 39.8015 92.0633 46.0317 92.0633 46.0317C92.0633 46.0317 91.1669 45.8076 85.3849 44.4181C80.6338 43.2976 79.5133 43.2528 76.2861 42.8494L80.4097 52.6653C80.4097 52.6653 87.2226 53.9203 93.9907 54.996C99.0555 55.758 102.193 55.6235 100.804 49.5726Z" fill="#FFA8A7"/>
<path d="M91.5707 42.4013L91.3018 40.4291C91.3018 40.4291 92.6912 41.0566 94.7082 40.6532C96.77 40.2498 97.5768 39.3086 97.5768 39.3086L98.2043 40.9222C98.2043 40.9222 96.8148 41.9082 94.9771 42.2668C93.1843 42.715 91.5707 42.4013 91.5707 42.4013Z" fill="#F0F0F0"/>
<path d="M76.3311 42.7151C79.1548 42.8496 81.8441 43.3426 85.8332 44.2839C89.3741 45.0906 91.8841 45.763 91.8841 45.763L91.3911 41.5946C91.3911 41.5946 92.6013 42.3565 95.0665 41.9083C97.5317 41.4601 98.1592 40.4292 98.1592 40.4292C98.1592 40.4292 100.669 47.2869 101.252 50.5589C101.745 53.4723 100.983 56.0271 96.9938 55.6685C92.1082 55.2203 79.5134 53.0241 79.5134 53.0241L76.3311 42.7151Z" fill="#EEEEEE"/>
<path opacity="0.15" d="M91.8843 45.8074C92.0636 48.5415 92.6463 50.5585 93.6323 51.7687C91.9291 50.8274 90.8534 48.1829 90.8086 45.4937L91.8843 45.8074Z" fill="black"/>
<path d="M81.3065 27.8789C80.9928 27.9686 80.7687 28.2375 80.6342 28.5961C80.3653 29.3132 80.7239 30.2545 81.441 30.6579C81.7996 30.882 82.1133 30.9268 82.4271 30.7923C82.5167 30.7475 83.5028 30.4338 83.5924 30.3889C83.9062 30.2993 84.1303 30.0304 84.2648 29.6718C84.5337 28.9547 84.1751 28.0134 83.458 27.61C83.0994 27.3859 82.7408 27.3411 82.4719 27.4755C82.3823 27.5204 81.3962 27.8789 81.3065 27.8789Z" fill="#FAFAFA"/>
<path d="M81.3065 27.8789C80.9928 27.9686 80.7687 28.2375 80.6342 28.5961C80.3653 29.3132 80.7239 30.2545 81.441 30.6579C81.7996 30.882 82.1133 30.9268 82.4271 30.7923C82.5167 30.7475 83.5028 30.4338 83.5924 30.3889C83.9062 30.2993 84.1303 30.0304 84.2648 29.6718C84.5337 28.9547 84.1751 28.0134 83.458 27.61C83.0994 27.3859 82.7408 27.3411 82.4719 27.4755C82.3823 27.5204 81.3962 27.8789 81.3065 27.8789Z" fill="#EDEDED"/>
<path opacity="0.25" d="M81.3065 27.8789C80.9928 27.9686 80.7687 28.2375 80.6342 28.5961C80.3653 29.3132 80.7239 30.2545 81.441 30.6579C81.7996 30.882 82.1133 30.9268 82.4271 30.7923C82.5167 30.7475 83.5028 30.4338 83.5924 30.3889C83.9062 30.2993 84.1303 30.0304 84.2648 29.6718C84.5337 28.9547 84.1751 28.0134 83.458 27.61C83.0994 27.3859 82.7408 27.3411 82.4719 27.4755C82.3823 27.5204 81.3962 27.8789 81.3065 27.8789Z" fill="white"/>
<path d="M82.562 30.2993C83.2343 30.7027 83.9963 30.4786 84.2652 29.7615C84.5341 29.0443 84.1755 28.1031 83.4584 27.6997C82.7861 27.2963 82.0241 27.5204 81.7552 28.2376C81.5311 28.9099 81.8896 29.8511 82.562 30.2993Z" fill="#017C57"/>
<path d="M82.7413 27.6101C82.4724 27.6998 82.2483 27.9239 82.1586 28.2376C81.9345 28.8651 82.2483 29.6719 82.8309 30.0305C83.0999 30.2098 83.4136 30.2546 83.6825 30.165C83.7722 30.1202 93.364 27.4309 93.4088 27.4309C93.6778 27.3412 93.7674 26.6689 93.9019 26.3551C94.126 25.7276 93.8122 24.9208 93.2295 24.5623C92.9158 24.383 92.4228 23.9348 92.1538 24.0244C92.109 24.0244 82.8309 27.6101 82.7413 27.6101Z" fill="#263238"/>
<path d="M89.6431 23.8001C89.1053 23.9794 88.6571 24.3828 88.433 25.0551C87.9847 26.3549 88.6122 27.9685 89.8224 28.7305C90.4051 29.089 91.0326 29.1787 91.5705 28.9994C91.7498 28.9546 110.44 23.7104 110.62 23.6656C111.158 23.4863 111.382 22.1417 111.606 21.5142C112.054 20.2144 111.426 18.6008 110.216 17.8388C109.634 17.4802 108.558 16.539 108.02 16.7183C107.841 16.7631 89.7776 23.7553 89.6431 23.8001Z" fill="#E0E0E0"/>
<path d="M108.379 23.2624C109.992 24.2484 111.785 23.6658 112.368 21.9625C112.95 20.2593 112.099 18.0631 110.485 17.077C108.872 16.0909 107.079 16.6736 106.496 18.3768C105.913 20.08 106.72 22.2315 108.379 23.2624Z" fill="#E0E0E0"/>
<path d="M108.11 23.5313C108.692 23.8899 109.32 24.0692 109.858 24.0692C109.858 24.0692 109.858 24.0692 109.903 24.0692H109.947H109.992L110.933 24.0243C110.933 24.0243 110.933 24.0243 110.889 24.0243H110.844C110.799 24.0243 110.754 24.0243 110.709 24.0243C110.62 24.0243 110.53 24.0243 110.44 23.9795C109.992 23.8899 109.499 23.7554 109.051 23.4417C108.827 23.3072 108.603 23.1279 108.379 22.9486C106.9 21.6488 106.182 19.4077 106.81 17.6597C106.989 17.1666 107.213 16.7632 107.527 16.4495C107.527 16.4047 107.572 16.4047 107.572 16.3599L107.617 16.315L107.751 16.1806L107.796 16.1357L107.034 16.6736C106.944 16.7184 106.9 16.7632 106.81 16.8529C106.451 17.1666 106.138 17.6149 105.958 18.1527C105.376 19.8559 106.093 22.0074 107.572 23.1727C107.617 23.2176 107.706 23.2624 107.751 23.3072C107.751 23.3072 107.751 23.3072 107.796 23.3072C107.975 23.4417 108.065 23.4865 108.11 23.5313Z" fill="#263238"/>
<path d="M112.502 22.5004C114.519 23.7554 116.76 22.9934 117.477 20.842C118.194 18.6905 117.164 15.9564 115.147 14.7462C113.13 13.4912 110.889 14.2532 110.171 16.4046C109.409 18.5112 110.485 21.2454 112.502 22.5004Z" fill="#01593E"/>
<path d="M109.006 23.621C109.365 23.8451 109.768 24.0244 110.127 24.1141C110.351 24.1589 110.933 24.2037 110.978 24.2037C111.068 24.2037 111.337 24.2037 111.382 24.1589C111.471 24.1589 111.516 24.1589 111.606 24.1141C111.74 24.1141 111.83 24.0693 111.919 24.0244H111.964H112.009H112.054L115.371 22.9487C115.326 22.9487 115.326 22.9487 115.281 22.9935C115.236 22.9935 115.236 22.9935 115.191 23.0384C115.102 23.0384 115.057 23.0832 114.967 23.0832C114.878 23.0832 114.788 23.128 114.654 23.128C113.936 23.1728 113.174 22.9935 112.413 22.5453C112.188 22.4109 112.009 22.2764 111.83 22.1419C110.171 20.7973 109.409 18.3769 110.082 16.4496C110.306 15.7773 110.709 15.2394 111.202 14.836C111.247 14.7912 111.292 14.7464 111.337 14.7464C111.382 14.7015 111.426 14.7015 111.471 14.6567C111.516 14.6119 111.561 14.6119 111.651 14.5671C111.695 14.5223 111.74 14.5223 111.785 14.5223C111.83 14.5223 111.875 14.4774 111.919 14.4774C111.964 14.4774 112.009 14.4326 112.054 14.4326L108.737 15.5083L108.603 15.5532C107.751 15.8669 107.034 16.5841 106.675 17.6149C106.048 19.4526 106.72 21.7385 108.244 23.128C108.334 23.1728 108.379 23.2625 108.468 23.3073C108.647 23.3969 108.827 23.5314 109.006 23.621Z" fill="#FAFAFA"/>
<path d="M118.329 13.8947C120.256 15.0601 121.242 17.6598 120.57 19.6767C120.39 20.2594 120.032 20.7524 119.628 21.111C119.36 21.3799 119.001 21.5592 118.642 21.6489L115.863 22.5901L115.774 22.635C115.639 22.6798 115.505 22.7246 115.37 22.7246C114.608 22.8591 113.802 22.6798 112.995 22.1867C111.068 21.0214 110.081 18.4217 110.754 16.4048C111.023 15.5531 111.561 14.9705 112.233 14.6119C112.323 14.5671 112.457 14.5222 112.591 14.4774L112.726 14.4326L115.46 13.5362C116.356 13.1776 117.343 13.3121 118.329 13.8947Z" fill="#EBEBEB"/>
<path d="M114.474 13.4916C113.578 13.8054 112.816 14.5225 112.457 15.5534C111.74 17.7049 112.771 20.439 114.788 21.6492C115.774 22.2767 116.805 22.3663 117.701 22.0974C118.015 22.0077 119.898 21.3354 120.211 21.2458C121.108 20.932 121.87 20.2149 122.228 19.184C122.945 17.0325 121.915 14.2984 119.853 13.0882C118.867 12.4607 117.791 12.3711 116.895 12.64C116.67 12.7297 114.743 13.402 114.474 13.4916Z" fill="#FAFAFA"/>
<path d="M109.006 23.621C109.365 23.8451 109.768 24.0244 110.127 24.1141C110.351 24.1589 110.933 24.2037 110.978 24.2037C111.068 24.2037 111.337 24.2037 111.382 24.1589C111.471 24.1589 111.516 24.1589 111.606 24.1141C111.74 24.1141 111.83 24.0693 111.919 24.0244H111.964H112.009H112.054L115.371 22.9487C115.326 22.9487 115.326 22.9487 115.281 22.9935C115.236 22.9935 115.236 22.9935 115.191 23.0384C115.102 23.0384 115.057 23.0832 114.967 23.0832C114.878 23.0832 114.788 23.128 114.654 23.128C113.936 23.1728 113.174 22.9935 112.413 22.5453C112.188 22.4109 112.009 22.2764 111.83 22.1419C110.171 20.7973 109.409 18.3769 110.082 16.4496C110.306 15.7773 110.709 15.2394 111.202 14.836C111.247 14.7912 111.292 14.7464 111.337 14.7464C111.382 14.7015 111.426 14.7015 111.471 14.6567C111.516 14.6119 111.561 14.6119 111.651 14.5671C111.695 14.5223 111.74 14.5223 111.785 14.5223C111.83 14.5223 111.875 14.4774 111.919 14.4774C111.964 14.4774 112.009 14.4326 112.054 14.4326L108.737 15.5083L108.603 15.5532C107.751 15.8669 107.034 16.5841 106.675 17.6149C106.048 19.4526 106.72 21.7385 108.244 23.128C108.334 23.1728 108.379 23.2625 108.468 23.3073C108.647 23.3969 108.827 23.5314 109.006 23.621Z" fill="#01573D"/>
<path opacity="0.25" d="M109.006 23.621C109.365 23.8451 109.768 24.0244 110.127 24.1141C110.351 24.1589 110.933 24.2037 110.978 24.2037C111.068 24.2037 111.337 24.2037 111.382 24.1589C111.471 24.1589 111.516 24.1589 111.606 24.1141C111.74 24.1141 111.83 24.0693 111.919 24.0244H111.964H112.009H112.054L115.371 22.9487C115.326 22.9487 115.326 22.9487 115.281 22.9935C115.236 22.9935 115.236 22.9935 115.191 23.0384C115.102 23.0384 115.057 23.0832 114.967 23.0832C114.878 23.0832 114.788 23.128 114.654 23.128C113.936 23.1728 113.174 22.9935 112.413 22.5453C112.188 22.4109 112.009 22.2764 111.83 22.1419C110.171 20.7973 109.409 18.3769 110.082 16.4496C110.306 15.7773 110.709 15.2394 111.202 14.836C111.247 14.7912 111.292 14.7464 111.337 14.7464C111.382 14.7015 111.426 14.7015 111.471 14.6567C111.516 14.6119 111.561 14.6119 111.651 14.5671C111.695 14.5223 111.74 14.5223 111.785 14.5223C111.83 14.5223 111.875 14.4774 111.919 14.4774C111.964 14.4774 112.009 14.4326 112.054 14.4326L108.737 15.5083L108.603 15.5532C107.751 15.8669 107.034 16.5841 106.675 17.6149C106.048 19.4526 106.72 21.7385 108.244 23.128C108.334 23.1728 108.379 23.2625 108.468 23.3073C108.647 23.3969 108.827 23.5314 109.006 23.621Z" fill="#016043"/>
<path d="M118.329 13.8947C120.256 15.0601 121.242 17.6598 120.57 19.6767C120.39 20.2594 120.032 20.7524 119.628 21.111C119.36 21.3799 119.001 21.5592 118.642 21.6489L115.863 22.5901L115.774 22.635C115.639 22.6798 115.505 22.7246 115.37 22.7246C114.608 22.8591 113.802 22.6798 112.995 22.1867C111.068 21.0214 110.081 18.4217 110.754 16.4048C111.023 15.5531 111.561 14.9705 112.233 14.6119C112.323 14.5671 112.457 14.5222 112.591 14.4774L112.726 14.4326L115.46 13.5362C116.356 13.1776 117.343 13.3121 118.329 13.8947Z" fill="#00BA82"/>
<path opacity="0.15" d="M118.329 13.8947C120.256 15.0601 121.242 17.6598 120.57 19.6767C120.39 20.2594 120.032 20.7524 119.628 21.111C119.36 21.3799 119.001 21.5592 118.642 21.6489L115.863 22.5901L115.774 22.635C115.639 22.6798 115.505 22.7246 115.37 22.7246C114.608 22.8591 113.802 22.6798 112.995 22.1867C111.068 21.0214 110.081 18.4217 110.754 16.4048C111.023 15.5531 111.561 14.9705 112.233 14.6119C112.323 14.5671 112.457 14.5222 112.591 14.4774L112.726 14.4326L115.46 13.5362C116.356 13.1776 117.343 13.3121 118.329 13.8947Z" fill="white"/>
<path d="M114.474 13.4916C113.578 13.8054 112.816 14.5225 112.457 15.5534C111.74 17.7049 112.771 20.439 114.788 21.6492C115.774 22.2767 116.805 22.3663 117.701 22.0974C118.015 22.0077 119.898 21.3354 120.211 21.2458C121.108 20.932 121.87 20.2149 122.228 19.184C122.945 17.0325 121.915 14.2984 119.853 13.0882C118.867 12.4607 117.791 12.3711 116.895 12.64C116.67 12.7297 114.743 13.402 114.474 13.4916Z" fill="#01573D"/>
<path opacity="0.25" d="M114.474 13.4916C113.578 13.8054 112.816 14.5225 112.457 15.5534C111.74 17.7049 112.771 20.439 114.788 21.6492C115.774 22.2767 116.805 22.3663 117.701 22.0974C118.015 22.0077 119.898 21.3354 120.211 21.2458C121.108 20.932 121.87 20.2149 122.228 19.184C122.945 17.0325 121.915 14.2984 119.853 13.0882C118.867 12.4607 117.791 12.3711 116.895 12.64C116.67 12.7297 114.743 13.402 114.474 13.4916Z" fill="#017C57"/>
<path d="M117.253 20.8422C119.27 22.0972 121.511 21.3352 122.228 19.1838C122.945 17.0323 121.914 14.343 119.897 13.088C117.88 11.833 115.639 12.595 114.922 14.7464C114.205 16.8979 115.236 19.5871 117.253 20.8422Z" fill="#00BA82"/>
<path opacity="0.2" d="M120.749 20.4386C119.808 21.2454 118.553 20.6627 118.104 20.3938C116.222 19.2284 115.191 16.584 115.863 14.6118C116.043 14.1188 116.312 13.7154 116.625 13.4464C117.567 12.6397 118.822 13.2223 119.27 13.4913C121.152 14.6566 122.183 17.3011 121.511 19.2733C121.332 19.7215 121.063 20.1249 120.749 20.4386Z" fill="black"/>
<path d="M118.104 13.85C117.836 13.6707 117.253 13.4018 116.67 13.3569C116.67 13.3569 116.625 13.3569 116.625 13.4018C116.312 13.6707 116.043 14.0741 115.863 14.5671C115.191 16.5393 116.222 19.2286 118.104 20.3491C118.373 20.5284 118.956 20.7973 119.539 20.8421C119.539 20.8421 119.539 20.8421 119.584 20.7973C119.897 20.5284 120.166 20.125 120.346 19.632C121.018 17.6598 119.987 14.9705 118.104 13.85Z" fill="#BA68C8"/>
<path opacity="0.6" d="M118.104 13.85C117.836 13.6707 117.253 13.4018 116.67 13.3569C116.67 13.3569 116.625 13.3569 116.625 13.4018C116.312 13.6707 116.043 14.0741 115.863 14.5671C115.191 16.5393 116.222 19.2286 118.104 20.3491C118.373 20.5284 118.956 20.7973 119.539 20.8421C119.539 20.8421 119.539 20.8421 119.584 20.7973C119.897 20.5284 120.166 20.125 120.346 19.632C121.018 17.6598 119.987 14.9705 118.104 13.85Z" fill="white"/>
<path opacity="0.1" d="M115.819 14.6567C115.192 16.6289 116.222 19.2285 118.06 20.3939C118.777 20.2594 119.36 19.7216 119.629 18.9596C120.122 17.5253 119.405 15.6876 118.06 14.8808C117.298 14.343 116.491 14.343 115.819 14.6567Z" fill="#BA68C8"/>
<path opacity="0.2" d="M115.685 16.315C115.774 17.3459 116.178 18.332 116.805 19.1836C117.612 19.587 118.508 19.2284 118.777 18.3768C119.091 17.4355 118.643 16.2702 117.746 15.7323C116.94 15.2393 116.043 15.5082 115.685 16.315Z" fill="#BA68C8"/>
<path opacity="0.6" d="M116.267 15.7323C116.088 14.6566 116.76 13.805 117.208 13.8498C117.656 13.8498 120.48 15.5979 120.032 18.9595C120.032 18.9595 119.942 16.8081 118.643 15.4186C117.432 14.0739 116.312 14.6566 116.267 15.7323Z" fill="white"/>
<path opacity="0.1" d="M108.469 23.2179L111.92 22.0525L112.368 21.6491L114.071 21.0665C114.161 21.1113 114.206 21.2009 114.296 21.2458L116.761 20.439C116.94 20.5734 117.074 20.7079 117.254 20.7975C117.299 20.8424 117.388 20.8872 117.433 20.8872C117.971 21.2009 118.554 21.3354 119.091 21.3802C119.45 21.3802 119.764 21.3802 120.122 21.2906C120.122 21.2906 120.122 21.2906 120.078 21.2906C119.54 21.4699 118.016 22.0077 117.747 22.0974C117.433 22.187 117.074 22.2318 116.716 22.2318L116.537 22.2767C116.133 22.6352 115.685 22.8593 115.192 22.949H115.237C115.282 22.949 115.326 22.949 115.326 22.9042C115.371 22.9042 115.371 22.9042 115.416 22.8593L112.099 23.935H112.054H112.01H111.965C111.875 23.9799 111.741 23.9799 111.651 24.0247C111.606 24.0247 111.517 24.0247 111.427 24.0695C111.382 24.0695 111.068 24.1143 111.024 24.1143C110.934 24.1143 110.396 24.0695 110.172 24.0247C109.903 23.935 109.589 23.8454 109.32 23.7109C109.231 23.6661 109.141 23.6213 109.051 23.5317C108.827 23.5317 108.648 23.3972 108.469 23.2179Z" fill="black"/>
<path d="M57.9099 71.401C58.1789 69.4737 59.5235 69.2048 58.8512 64.5881C58.5374 62.3022 57.3721 56.3858 57.3721 56.3858C57.3721 56.3858 61.3164 53.3379 60.0614 44.5081L64.2746 42.8048L66.5605 41.998L73.0148 42.267L76.3316 43.1634C77.4521 44.1495 79.5588 45.6734 81.2172 48.049C83.6375 51.4554 84.0409 55.2204 81.5757 57.9994C81.5309 58.5372 81.6654 66.9637 82.2929 69.0255C82.5618 69.8323 82.8756 70.9528 82.3377 72.0285C80.007 75.928 65.933 79.8723 57.9099 71.401Z" fill="#FAFAFA"/>
<path d="M73.0586 42.2222L76.3754 42.7152C79.5577 45.0908 83.3227 49.4384 83.5468 52.7552C83.7709 56.072 82.0677 58.3131 82.0677 58.3131C82.0677 58.3131 82.0229 65.0812 82.7849 68.6669C83.5468 72.2526 84.3985 81.7996 84.3985 81.7996C84.3985 81.7996 84.4881 82.3823 81.7988 83.1443C80.992 78.5725 78.975 61.7644 79.0647 57.7304C79.1991 53.6965 79.2888 47.3318 73.0586 42.2222Z" fill="#017C57"/>
<path opacity="0.3" d="M73.0586 42.2222L76.3754 42.7152C79.5577 45.0908 83.3227 49.4384 83.5468 52.7552C83.7709 56.072 82.0677 58.3131 82.0677 58.3131C82.0677 58.3131 82.0229 65.0812 82.7849 68.6669C83.5468 72.2526 84.3985 81.7996 84.3985 81.7996C84.3985 81.7996 84.4881 82.3823 81.7988 83.1443C80.992 78.5725 78.975 61.7644 79.0647 57.7304C79.1991 53.6965 79.2888 47.3318 73.0586 42.2222Z" fill="black"/>
<path opacity="0.2" d="M79.5578 59.6132C79.8268 58.5374 80.0957 57.4617 80.4094 56.4308C80.7232 55.3551 80.9921 54.3242 81.2611 53.2485C81.3955 52.7106 81.53 52.1728 81.5748 51.6349C81.6644 51.1419 81.3059 50.6937 80.9473 50.2903C80.1853 49.5283 79.3337 48.856 78.3925 48.2285L78.3028 48.1837V48.094C78.3925 47.5113 78.3925 46.9286 78.3028 46.346C78.2132 45.7633 77.9891 45.1806 77.6753 44.6876C77.3616 44.1945 76.9134 43.7911 76.4203 43.4326C75.9273 43.074 75.4342 42.7602 74.8516 42.5361C75.4342 42.7602 75.9721 43.0292 76.4651 43.3429C76.9582 43.6567 77.4512 44.1049 77.8098 44.5979C78.1684 45.1358 78.3925 45.7185 78.5269 46.3011C78.6614 46.9286 78.6614 47.5113 78.5718 48.1388L78.5269 48.0044C79.4682 48.6319 80.3646 49.2594 81.1266 50.0662C81.3059 50.2903 81.4852 50.5144 81.6644 50.7385C81.7093 50.7833 81.7093 50.8729 81.7541 50.9626C81.7989 51.0522 81.7989 51.0971 81.8437 51.1867C81.8886 51.366 81.8886 51.5004 81.8437 51.6349C81.7989 52.2176 81.6644 52.7555 81.53 53.2933C81.261 54.369 80.9025 55.3999 80.5887 56.4756C80.275 57.5065 79.9164 58.5823 79.5578 59.6132Z" fill="black"/>
<path d="M64.3186 42.8047C64.3186 42.8047 65.708 44.5976 67.5457 48.8108C69.3834 53.024 71.1763 56.8338 71.1314 60.7333C71.0866 64.6328 69.8316 84.7577 69.8316 84.7577C69.8316 84.7577 64.2737 85.6093 59.2089 83.5475L59.6123 75.7485L57.685 83.1889C57.685 83.1889 55.2646 82.3373 54.3682 81.5305C55.668 73.4178 58.6262 69.608 58.7607 66.6049C58.8503 64.5432 57.1023 58.8508 56.7885 53.7412C56.5196 49.259 57.416 44.732 57.416 44.732L64.3186 42.8047Z" fill="#016244"/>
<path opacity="0.3" d="M64.3186 42.8047C64.3186 42.8047 65.708 44.5976 67.5457 48.8108C69.3834 53.024 71.1763 56.8338 71.1314 60.7333C71.0866 64.6328 69.8316 84.7577 69.8316 84.7577C69.8316 84.7577 64.2737 85.6093 59.2089 83.5475L59.6123 75.7485L57.685 83.1889C57.685 83.1889 55.2646 82.3373 54.3682 81.5305C55.668 73.4178 58.6262 69.608 58.7607 66.6049C58.8503 64.5432 57.1023 58.8508 56.7885 53.7412C56.5196 49.259 57.416 44.732 57.416 44.732L64.3186 42.8047Z" fill="#00BA82"/>
<path opacity="0.2" d="M70.3699 61.8541C70.0561 60.868 69.4735 59.9716 68.846 59.1648C68.2185 58.358 67.5461 57.5512 66.829 56.7893C66.4704 56.3859 66.1118 56.0273 65.7533 55.6239L65.2154 55.0412C65.1258 54.9516 65.0361 54.8619 64.9465 54.7275C64.9017 54.6826 64.9017 54.6827 64.8568 54.6378C64.812 54.593 64.812 54.5482 64.812 54.5034C64.7672 54.4137 64.7672 54.3241 64.7672 54.2344C64.8568 53.6069 65.0809 53.1587 65.3051 52.6657C65.574 52.2175 65.7981 51.7244 66.1118 51.2762L66.1567 51.5451L64.5431 49.9316L63.7363 49.1248L63.557 48.9007L63.4674 48.811C63.4226 48.7662 63.4226 48.7662 63.3329 48.6317C63.2881 48.4973 63.2881 48.4076 63.2881 48.2732C63.2881 48.1835 63.2881 48.0939 63.3329 47.9594C63.4674 47.1974 63.6467 46.4803 63.8708 45.7183C64.0949 45.0012 64.319 44.284 64.5879 43.5669C64.4086 44.284 64.2293 45.046 64.0501 45.7632C63.8708 46.4803 63.6915 47.2423 63.6467 47.9594C63.6467 48.1387 63.6018 48.3628 63.6467 48.4524C63.6018 48.4076 63.6467 48.4524 63.6915 48.4973L63.7811 48.5869L64.0052 48.7662L64.812 49.573L66.4256 51.1866L66.5601 51.321L66.4704 51.4555C66.2015 51.9037 65.9326 52.3519 65.7085 52.8001C65.4843 53.2484 65.2602 53.7414 65.1706 54.1896C65.1706 54.2344 65.1706 54.2793 65.1706 54.3241C65.1706 54.3241 65.1706 54.3241 65.1706 54.3689L65.2154 54.4137C65.3051 54.5034 65.3947 54.593 65.4843 54.6826L66.0222 55.2653C66.3808 55.6687 66.7394 56.0273 67.0531 56.4307C67.7254 57.2375 68.3977 58.0443 68.9804 58.8959C69.2942 59.3441 69.5631 59.7923 69.7872 60.2405C70.0561 60.8232 70.2803 61.3162 70.3699 61.8541Z" fill="black"/>
<path d="M64.1393 37.157C63.2429 37.426 62.3016 37.0674 61.6741 36.5295C60.2847 35.2745 59.9709 33.8851 60.464 32.899C60.8673 32.0922 61.9879 31.4647 62.8843 31.8681C63.8256 32.3163 63.9152 32.7645 64.3186 33.3472C64.722 33.9747 65.5288 33.3472 64.9461 30.8372C66.5597 29.8511 65.977 26.9825 66.7838 25.6827C68.0388 23.6657 70.504 23.8899 71.3108 24.2484C71.9383 23.6209 73.2829 23.1727 74.5379 23.6657C75.7481 24.1588 76.6894 25.369 77.5858 29.8063C78.5271 34.3333 78.0788 37.4708 77.1376 38.5465C76.4653 39.3085 74.8517 39.9808 73.2381 40.0704L73.0588 42.5805C73.0588 42.5805 78.3926 46.7937 72.4313 47.0178C67.9492 47.1971 64.722 42.6253 64.722 42.6253L65.0806 36.3054C65.0358 36.3054 65.0358 36.8881 64.1393 37.157Z" fill="#FFA8A7"/>
<path d="M69.9659 28.8204L68.3523 29.672C68.1282 29.2238 68.3075 28.6411 68.7557 28.417C69.2039 28.148 69.7418 28.3722 69.9659 28.8204Z" fill="#263238"/>
<path d="M76.3758 27.5204L74.5381 27.2515C74.5829 26.7585 75.0311 26.3999 75.569 26.4447C76.1068 26.5343 76.4654 26.9826 76.3758 27.5204Z" fill="#263238"/>
<path d="M70.7725 34.916L73.3721 35.3194C73.2825 36.0366 72.655 36.5296 71.9378 36.44C71.2207 36.3055 70.6828 35.6332 70.7725 34.916Z" fill="#B16668"/>
<path d="M72.431 36.3949C72.2517 35.8122 71.7138 35.364 71.0863 35.4089C70.9967 35.4089 70.907 35.4089 70.8174 35.4537C70.9518 35.9467 71.4001 36.3501 71.9379 36.4398C72.0724 36.4398 72.2517 36.4397 72.431 36.3949Z" fill="#F28F8F"/>
<path d="M76.2861 29.4924C76.4654 29.851 76.3309 30.2992 75.9724 30.4785C75.6138 30.6578 75.1656 30.5233 74.9863 30.1648C74.807 29.8062 74.9415 29.358 75.3 29.1787C75.6586 28.9994 76.1068 29.1339 76.2861 29.4924Z" fill="#263238"/>
<path d="M71.0414 30.7924C71.0862 30.9269 70.5932 30.658 70.1002 30.7028C69.4727 30.7924 69.0693 31.4199 69.1589 31.0165C69.2037 30.658 69.4278 30.2994 70.0554 30.2098C70.4587 30.1649 70.8621 30.389 71.0414 30.7924Z" fill="#263238"/>
<path d="M72.5205 28.9097L73.4169 33.7056L75.9718 32.6299C75.1202 30.837 73.641 29.7165 72.5205 28.9097Z" fill="#F28F8F"/>
<path d="M73.2381 40.1151C70.9074 40.2944 68.0388 39.7117 67.0527 38.3223C67.6802 39.891 69.4283 40.5185 70.7729 40.7426C72.3865 41.0116 73.1933 40.9219 73.1933 40.9219L73.2381 40.1151Z" fill="#F28F8F"/>
<path d="M53.786 83.3234C53.2482 82.7855 52.5759 82.2925 52.3517 81.5305C52.2173 81.1271 52.2621 80.6789 52.531 80.3651C52.5759 80.2755 52.6655 80.2307 52.6655 80.141C52.6655 80.0514 52.6655 80.0066 52.6655 79.9169C52.6207 79.648 52.5759 79.3342 52.7103 79.0653C52.8 78.8412 53.0241 78.6619 53.2482 78.5723C53.1137 78.1689 53.1137 77.6758 53.2482 77.2724C53.4275 76.7794 53.9205 76.376 54.2791 76.9139C54.4584 77.1828 54.5928 77.4966 54.6825 77.7655C54.9514 78.5275 55.1307 79.2894 55.2203 80.0962C55.31 80.903 55.5789 83.2785 54.2791 83.413C54.1446 83.413 53.8757 83.413 53.786 83.3234Z" fill="#F28F8F"/>
<path d="M58.6268 45.1353C53.6964 46.1662 53.2482 47.7349 50.3796 51.8585C47.5558 55.9373 43.9253 61.5848 43.0737 63.6017C41.9979 66.0669 41.7738 67.0082 44.4183 69.563C45.8078 70.8628 47.6903 72.4316 49.6624 74.1796C51.1864 75.5691 53.0689 77.0482 54.548 78.4825C54.9514 78.8859 55.1307 79.2445 55.041 79.8272C54.9514 80.1409 54.8169 80.4995 54.8169 80.8132C54.7721 81.2615 54.9066 81.6648 54.9514 82.1131C54.9962 82.5613 54.8617 83.0543 54.4584 83.2336C54.2791 83.3232 54.055 83.3232 53.8308 83.3232C54.2342 83.5922 54.5928 83.8163 55.041 83.9507C55.4892 84.0852 55.9823 84.0852 56.3857 83.8611C56.7891 83.637 57.058 83.2784 57.5062 83.144C57.7303 83.0543 57.9993 83.0543 58.2234 83.0095C58.4475 82.9198 58.6716 82.7854 58.806 82.6061C59.0302 82.2923 59.1198 81.8441 59.4784 81.6648C59.6577 81.5752 59.8369 81.5752 60.0162 81.4856C60.3748 81.3511 60.5989 80.9477 60.6437 80.5891C60.7334 80.2306 60.6437 79.8272 60.5989 79.4238C60.4196 78.3929 60.1955 77.4068 59.9266 76.4207C59.8369 76.0621 59.6128 75.7932 59.4336 75.4795C59.2094 75.1657 58.9853 74.8071 58.7164 74.4934C56.9684 72.3868 51.4553 65.2601 51.4553 65.2601L57.551 57.2371C57.5062 57.2819 61.9436 52.1274 58.6268 45.1353Z" fill="#FFA8A7"/>
<path d="M51.3655 65.3052C49.8864 66.8291 47.5557 66.9636 46.7041 66.9636C49.752 68.1289 51.8586 65.9775 51.8586 65.9775L51.3655 65.3052Z" fill="#F28F8F"/>
<path d="M48.2725 72.9695L49.6619 74.1797C49.6619 74.1797 51.5444 74.0452 53.0684 72.2075C54.5923 70.3698 54.5027 69.0252 54.5027 69.0252L52.8891 67.1875L48.2725 72.9695Z" fill="#F0F0F0"/>
<path d="M58.6714 44.3286C55.1305 45.0906 54.4582 45.5836 51.9482 49.1245C49.4382 52.6654 45.1353 59.4335 44.0596 61.1815C42.9391 62.9296 41.2807 65.9326 42.2667 67.4566C43.208 68.9805 48.4969 73.4178 48.4969 73.4178C48.4969 73.4178 50.2898 73.3282 51.993 71.5353C53.7859 69.6976 53.6514 67.7703 53.6514 67.7703L51.7241 65.3051C51.7241 65.3051 57.1923 58.2681 58.1784 56.9683C59.1197 55.6685 61.2711 51.276 58.6714 44.3286Z" fill="#EDEDED"/>
<path opacity="0.15" d="M51.6792 65.3052C50.962 64.4984 49.2588 63.1986 47.959 62.9745C49.3036 62.7503 51.2758 63.6916 52.1722 64.5432L51.6792 65.3052Z" fill="black"/>
</g>
<defs>
<clipPath id="clip0_125_382">
<rect width="206" height="208.017" fill="white"/>
</clipPath>
</defs>
</svg>
