<svg width="512" height="516" viewBox="0 0 512 516" fill="none" xmlns="http://www.w3.org/2000/svg">
<circle cx="256" cy="256" r="256" fill="url(#paint0_linear_50_5)"/>
<path d="M179.392 129.091V420H126.693V129.091H179.392ZM236.459 420V129.091H345.55C367.898 129.091 386.648 133.258 401.8 141.591C417.046 149.924 428.552 161.383 436.317 175.966C444.177 190.455 448.107 206.932 448.107 225.398C448.107 244.053 444.177 260.625 436.317 275.114C428.457 289.602 416.857 301.013 401.516 309.347C386.175 317.585 367.283 321.705 344.839 321.705H272.538V278.381H337.737C350.805 278.381 361.506 276.108 369.839 271.562C378.173 267.017 384.328 260.767 388.305 252.812C392.377 244.858 394.413 235.72 394.413 225.398C394.413 215.076 392.377 205.985 388.305 198.125C384.328 190.265 378.125 184.157 369.697 179.801C361.364 175.35 350.616 173.125 337.453 173.125H289.158V420H236.459Z" fill="white"/>
<defs>
<linearGradient id="paint0_linear_50_5" x1="43.52" y1="-23.8933" x2="340.48" y2="483.84" gradientUnits="userSpaceOnUse">
<stop stop-color="#54F8BC"/>
<stop offset="1" stop-color="#08C07D"/>
</linearGradient>
</defs>
</svg>
