<svg width="5014" height="1122" viewBox="0 0 5014 1122" fill="none" xmlns="http://www.w3.org/2000/svg">
<path d="M0 110C0 49.2487 49.2487 0 110 0H220V110C220 170.751 170.751 220 110 220V220C49.2487 220 0 170.751 0 110V110Z" fill="#0AFFB6"/>
<rect x="0.00195312" y="288" width="224" height="630" rx="112" fill="#08FFC4"/>
<path d="M224 600H0V399C0 337.144 50.1441 287 112 287V287C173.856 287 224 337.144 224 399V600Z" fill="url(#paint0_angular_119_15)"/>
<path d="M484.261 580.938V828.043C484.261 871.107 449.057 906.018 405.63 906.018C362.204 906.018 327 871.107 327 828.043V376.574C327 355.64 335.999 335.552 351.572 321.42C380.353 295.303 424.829 295.324 453.288 321.785C468.339 335.778 476.878 355.325 476.878 375.784V442.926H483.523C496.074 410.222 517.116 384.353 546.648 365.316C576.181 346.036 611.989 336.396 654.073 336.396C693.45 336.396 727.781 344.938 757.068 362.022C786.354 379.105 809.119 403.511 825.362 435.238C841.605 466.721 849.726 504.305 849.726 547.991V906.018H807.97C744.179 906.018 692.465 854.735 692.465 791.475V575.813C692.711 541.401 683.852 514.555 665.886 495.275C647.92 475.751 623.187 465.989 591.686 465.989C570.521 465.989 551.817 470.504 535.574 479.534C519.577 488.564 507.026 501.743 497.92 519.07C489.06 536.154 484.507 556.777 484.261 580.938Z" fill="white"/>
<path d="M1184.24 343.718C1248.03 343.718 1299.75 395 1299.75 458.26V460.864H1000.59C936.797 460.864 885.084 409.581 885.084 346.321V343.718H1184.24ZM1011.32 323.543C1011.32 209 993 209 1109.5 209V209C1145.67 209 1174.86 238.562 1174.4 274.725L1168.59 733.228C1168.59 747.627 1170.8 758.853 1175.23 766.907C1179.66 774.717 1185.81 780.208 1193.69 783.381C1201.81 786.553 1211.16 788.14 1221.74 788.14C1229.13 788.14 1236.51 787.53 1243.89 786.309C1251.28 784.845 1256.94 783.747 1260.87 783.015L1326.31 864.21C1318.44 866.65 1298.59 898.696 1252.38 907.482C1238.11 910.899 1220.76 912.973 1200.33 913.705C1162.43 915.17 1129.21 910.167 1100.66 898.696C1072.36 887.225 1050.33 869.41 1034.58 845.248C1018.83 821.087 1011.08 790.58 1011.32 753.728V323.543Z" fill="white"/>
<path d="M1630.03 917C1571.7 917 1521.5 905.286 1479.42 881.856C1437.58 858.183 1405.34 824.748 1382.7 781.55C1360.05 738.109 1348.73 686.735 1348.73 627.43C1348.73 569.59 1360.05 518.826 1382.7 475.141C1405.34 431.455 1437.21 397.409 1478.31 373.004C1519.65 348.599 1568.14 336.396 1623.76 336.396C1661.16 336.396 1695.99 342.375 1728.23 354.334C1760.71 366.049 1789.02 383.743 1813.13 407.416C1837.5 431.089 1856.45 460.864 1869.98 496.739C1883.52 532.371 1890.29 574.105 1890.29 621.939V664.771H1411.49V568.125H1742.26C1742.26 545.672 1737.33 525.782 1727.49 508.454C1717.64 491.126 1703.99 477.581 1686.51 467.819C1669.29 457.813 1649.23 452.81 1626.34 452.81C1602.47 452.81 1581.3 458.301 1562.84 469.283C1544.63 480.022 1530.36 494.543 1520.02 512.847C1509.69 530.907 1504.4 551.041 1504.15 573.25V665.137C1504.15 692.959 1509.32 716.998 1519.65 737.254C1530.24 757.511 1545.13 773.13 1564.32 784.113C1583.52 795.095 1606.28 800.586 1632.62 800.586C1650.09 800.586 1666.09 798.146 1680.61 793.265C1695.13 788.384 1707.55 781.062 1717.89 771.3C1728.23 761.538 1736.1 749.579 1741.52 735.424L1886.96 744.942C1879.58 779.598 1864.45 809.861 1841.56 835.73C1818.92 861.356 1789.63 881.368 1753.7 895.767C1718.01 909.922 1676.79 917 1630.03 917Z" fill="white"/>
<path d="M1992.91 906.018V458.26C1992.91 395 2044.63 343.718 2108.42 343.718H2145.37V441.827H2151.28C2161.62 406.928 2178.97 380.57 2203.33 362.754C2227.7 344.694 2255.75 335.664 2287.5 335.664C2295.37 335.664 2303.87 336.152 2312.97 337.128C2322.08 338.104 2330.08 339.447 2336.97 341.155V479.534C2329.58 477.337 2319.37 475.385 2306.33 473.676C2293.28 471.968 2281.35 471.114 2270.52 471.114C2247.38 471.114 2226.71 476.117 2208.5 486.123C2190.53 495.885 2176.26 509.552 2165.68 527.124C2155.34 544.696 2150.17 564.953 2150.17 587.894V791.475C2150.17 854.735 2098.46 906.018 2034.67 906.018H1992.91Z" fill="white"/>
<path d="M2575.53 580.938V828.043C2575.53 871.107 2540.33 906.018 2496.9 906.018C2453.48 906.018 2418.27 871.107 2418.27 828.043V379.176C2418.27 356.734 2428.68 335.279 2446.19 321.068C2474.01 298.5 2514.54 298.532 2541.93 321.616C2558.56 335.637 2568.15 356.195 2568.15 377.845V442.926H2574.8C2587.35 410.222 2608.39 384.353 2637.92 365.316C2667.45 346.036 2703.26 336.396 2745.35 336.396C2784.72 336.396 2819.05 344.938 2848.34 362.022C2877.63 379.105 2900.39 403.511 2916.64 435.238C2932.88 466.721 2941 504.305 2941 547.991V906.018H2899.24C2835.45 906.018 2783.74 854.735 2783.74 791.475V575.813C2783.99 541.401 2775.13 514.555 2757.16 495.275C2739.19 475.751 2714.46 465.989 2682.96 465.989C2661.79 465.989 2643.09 470.504 2626.85 479.534C2610.85 488.564 2598.3 501.743 2589.19 519.07C2580.33 536.154 2575.78 556.777 2575.53 580.938Z" fill="white"/>
<path d="M3050.37 1121.55V440.5C3050.37 385.272 3095.14 340.5 3150.37 340.5H3198.45L3199.52 463.165H3206.26C3212.89 448.487 3222.48 433.572 3235.03 418.421C3247.81 403.032 3264.38 390.248 3284.74 380.068C3305.34 369.652 3330.91 364.443 3361.45 364.443C3401.22 364.443 3437.92 374.86 3471.53 395.693C3505.15 416.29 3532.02 447.422 3552.14 489.088C3572.27 530.518 3582.33 582.483 3582.33 644.983C3582.33 705.826 3572.5 757.199 3552.85 799.103C3533.44 840.769 3506.93 872.374 3473.31 893.918C3439.93 915.225 3402.52 925.878 3361.09 925.878C3331.74 925.878 3306.76 921.025 3286.16 911.318C3265.8 901.612 3249.11 889.42 3236.09 874.742C3223.07 859.827 3213.13 844.794 3206.26 829.642H3201.65V1021.55C3201.65 1076.77 3156.88 1121.55 3101.65 1121.55H3050.37ZM3198.45 644.273C3198.45 676.707 3202.95 704.997 3211.95 729.145C3220.94 753.293 3233.96 772.114 3251.01 785.608C3268.05 798.866 3288.77 805.495 3313.15 805.495C3337.77 805.495 3358.61 798.747 3375.65 785.253C3392.7 771.522 3405.6 752.583 3414.36 728.435C3423.36 704.05 3427.85 675.997 3427.85 644.273C3427.85 612.786 3423.48 585.087 3414.72 561.176C3405.96 537.265 3393.05 518.563 3376.01 505.068C3358.96 491.574 3338.01 484.827 3313.15 484.827C3288.53 484.827 3267.7 491.337 3250.65 504.358C3233.84 517.379 3220.94 535.845 3211.95 559.756C3202.95 583.667 3198.45 611.839 3198.45 644.273Z" fill="#0AFFB6"/>
<path d="M3824.46 189.728V917H3673.18V289.727C3673.18 234.499 3717.95 189.728 3773.18 189.728H3824.46Z" fill="#0AFFB6"/>
<path d="M4285.43 684.756V447.185C4285.43 405.411 4319.29 371.546 4361.07 371.546V371.546C4402.84 371.546 4436.71 405.411 4436.71 447.185V917H4390.54C4335.82 917 4291.47 872.642 4291.47 817.924V817.924H4285.78C4273.47 849.884 4253 875.57 4224.35 894.983C4195.94 914.396 4161.26 924.103 4120.3 924.103C4083.84 924.103 4051.76 915.817 4024.07 899.245C3996.37 882.673 3974.71 859.117 3959.08 828.577C3943.69 798.037 3935.88 761.461 3935.64 718.847V371.546H3986.92C4042.15 371.546 4086.92 416.317 4086.92 471.546V691.858C4087.16 724.055 4095.8 749.505 4112.84 768.208C4129.89 786.91 4152.74 796.262 4181.38 796.262C4199.61 796.262 4216.66 792.119 4232.52 783.833C4248.38 775.31 4261.16 762.763 4270.87 746.191C4280.81 729.619 4285.67 709.14 4285.43 684.756Z" fill="#0AFFB6"/>
<path d="M4957.87 431.068C4997.32 473.552 4952.38 530.111 4894.51 533.673L4863.05 535.608C4860.69 523.771 4855.6 513.118 4847.78 503.648C4839.97 493.942 4829.67 486.247 4816.89 480.566C4804.34 474.647 4789.31 471.688 4771.79 471.688C4748.35 471.688 4728.58 476.659 4712.49 486.603C4696.39 496.309 4688.34 509.33 4688.34 525.665C4688.34 538.686 4693.55 549.694 4703.96 558.691C4714.38 567.687 4732.25 574.907 4757.59 580.353L4856.31 600.239C4909.34 611.129 4948.87 628.648 4974.91 652.796C5000.96 676.943 5013.98 708.667 5013.98 747.966C5013.98 783.714 5003.44 815.083 4982.37 842.071C4961.54 869.06 4932.89 890.13 4896.43 905.282C4860.21 920.196 4818.43 927.654 4771.08 927.654C4698.87 927.654 4641.34 912.621 4598.49 882.554C4555.88 852.251 4530.9 811.058 4523.57 758.975L4610.72 754.399C4646.15 752.538 4675.57 781.815 4705.03 801.588V801.588C4722.31 812.952 4744.45 818.634 4771.43 818.634C4797.95 818.634 4819.26 813.544 4835.35 803.364C4851.69 792.947 4859.98 779.571 4860.21 763.236C4859.98 749.505 4854.18 738.26 4842.81 729.5C4831.45 720.504 4813.93 713.639 4790.26 708.904L4695.8 690.083C4642.53 679.429 4602.87 660.963 4576.83 634.685C4551.03 608.407 4538.12 574.907 4538.12 534.188C4538.12 499.15 4547.59 468.965 4566.53 443.634C4585.71 418.302 4612.58 398.771 4647.14 385.04C4681.95 371.309 4722.67 364.443 4769.3 364.443C4838.2 364.443 4892.41 379.003 4931.95 408.122C4941.55 415.156 4950.19 422.805 4957.87 431.068Z" fill="#0AFFB6"/>
<defs>
<radialGradient id="paint0_angular_119_15" cx="0" cy="0" r="1" gradientUnits="userSpaceOnUse" gradientTransform="translate(112 600) rotate(-90) scale(360.695 258.133)">
<stop offset="0.00771007" stop-color="#1DE8B8"/>
<stop offset="0.206346" stop-color="#033E30"/>
<stop offset="0.915827" stop-color="#02614B"/>
<stop offset="0.976519" stop-color="#03906E"/>
</radialGradient>
</defs>
</svg>
