<svg width="300" height="300" viewBox="0 0 300 300" fill="none" xmlns="http://www.w3.org/2000/svg">
<circle cx="150" cy="150" r="150" fill="url(#paint0_linear_17_55)"/>
<path d="M91.6221 140.472V109.183H112.122V116.03H99.5412V121.41H110.865V128.245H99.5412V140.472H91.6221ZM90.3408 82H171.485C176.876 82.0102 182.044 84.274 185.857 88.2955C189.67 92.317 191.816 97.7684 191.825 103.456V148.104C191.806 153.785 189.656 159.227 185.844 163.24C182.033 167.253 176.87 169.511 171.485 169.522H125.471L94.5994 197.554C94.0871 198.011 93.459 198.3 92.7928 198.384C92.1266 198.468 91.4516 198.344 90.8515 198.028C90.2514 197.711 89.7525 197.216 89.4166 196.603C89.0808 195.991 88.9227 195.287 88.962 194.581L90.6093 169.522H90.3408C84.9554 169.511 79.7928 167.253 75.9813 163.24C72.1698 159.227 70.0193 153.785 70 148.104V103.456C70.0097 97.7684 72.1558 92.317 75.9684 88.2955C79.7809 84.274 84.9491 82.0102 90.3408 82ZM203.82 113.727C208.355 114.664 212.443 117.227 215.391 120.98C218.34 124.733 219.968 129.446 220 134.32V182.199C219.984 187.767 217.879 193.102 214.145 197.038C210.412 200.974 205.353 203.191 200.074 203.204H199.342L200.977 228.727C200.996 229.333 200.85 229.932 200.557 230.453C200.263 230.974 199.833 231.395 199.319 231.666C198.805 231.937 198.228 232.047 197.657 231.982C197.086 231.917 196.544 231.681 196.096 231.301L165.042 202.381H116.685L136.794 180.809H186.92C191.399 180.792 195.691 178.907 198.857 175.565C202.023 172.223 203.807 167.695 203.82 162.97V115.142C203.82 114.666 203.82 114.19 203.82 113.727ZM171.533 89.272H90.3408C86.7804 89.3058 83.3758 90.8171 80.8638 93.4788C78.3518 96.1405 76.9345 99.7386 76.9186 103.494V148.104C76.9506 151.86 78.3834 155.451 80.9068 158.101C83.4302 160.751 86.8413 162.246 90.4019 162.262H94.575C95.024 162.295 95.4626 162.421 95.8654 162.633C96.2682 162.845 96.6273 163.139 96.9221 163.497C97.2169 163.856 97.4416 164.273 97.5832 164.724C97.7249 165.174 97.7807 165.65 97.7475 166.124L96.3565 186.472L121.822 163.305C122.143 162.969 122.524 162.704 122.943 162.525C123.362 162.346 123.811 162.257 124.263 162.262H171.472C175.022 162.229 178.418 160.726 180.928 158.078C183.438 155.431 184.863 151.849 184.895 148.104V103.456C184.863 99.7111 183.438 96.1295 180.928 93.4816C178.418 90.8337 175.022 89.3313 171.472 89.2977L171.533 89.272ZM119.065 140.511H110.523L120.028 109.183H130.852L140.467 140.472H131.925L125.556 117.807H125.324L118.955 140.472L119.065 140.511ZM117.466 128.168H133.451V134.526H117.356V128.129L117.466 128.168ZM153.279 128.901H159.38L161.515 131.862L165.274 136.431L170.155 142.866H163.187L159.722 138.529L157.379 134.912L153.169 128.927L153.279 128.901ZM170.252 124.873C170.345 127.931 169.689 130.963 168.349 133.676C167.182 135.97 165.405 137.854 163.236 139.095C161.017 140.309 158.555 140.943 156.055 140.943C153.556 140.943 151.093 140.309 148.874 139.095C146.71 137.839 144.938 135.948 143.774 133.651C142.447 130.946 141.8 127.929 141.895 124.886C141.797 121.83 142.444 118.799 143.774 116.082C144.938 113.788 146.71 111.901 148.874 110.65C151.094 109.441 153.556 108.809 156.055 108.809C158.554 108.809 161.016 109.441 163.236 110.65C165.403 111.9 167.179 113.787 168.349 116.082C169.693 118.794 170.348 121.827 170.252 124.886V124.873ZM162.101 124.873C162.143 123.262 161.907 121.658 161.406 120.136C161.03 118.96 160.323 117.932 159.38 117.189C158.384 116.541 157.237 116.197 156.067 116.197C154.897 116.197 153.75 116.541 152.754 117.189C151.811 117.934 151.101 118.961 150.717 120.136C150.226 121.66 149.994 123.264 150.033 124.873C149.958 126.479 150.153 128.087 150.607 129.622C150.992 130.794 151.702 131.816 152.645 132.557C153.638 133.212 154.786 133.559 155.957 133.559C157.129 133.559 158.277 133.212 159.27 132.557C160.213 131.819 160.92 130.795 161.296 129.622C161.796 128.1 162.032 126.496 161.991 124.886L162.101 124.873Z" fill="white"/>
<defs>
<linearGradient id="paint0_linear_17_55" x1="25.5" y1="-14" x2="199.5" y2="283.5" gradientUnits="userSpaceOnUse">
<stop stop-color="#54F8BC"/>
<stop offset="1" stop-color="#08C07D"/>
</linearGradient>
</defs>
</svg>
