<svg width="300" height="300" viewBox="0 0 300 300" fill="none" xmlns="http://www.w3.org/2000/svg">
<circle cx="150" cy="150" r="150" fill="url(#paint0_linear_30_24)"/>
<path fill-rule="evenodd" clip-rule="evenodd" d="M176.689 104.264C181.35 106.803 185.549 110.008 189.13 113.76C192.662 117.443 195.495 121.653 197.512 126.211C198.642 128.792 199.539 131.456 200.194 134.175C201.676 140.357 201.795 146.753 200.542 152.978C199.852 156.335 198.803 159.619 197.41 162.783L197.251 163.119C194.35 169.834 189.159 176.335 184.2 182.755C181.677 186.005 179.168 189.215 177.066 192.331C176.404 193.3 175.47 194.085 174.364 194.601C173.258 195.116 172.022 195.344 170.787 195.259L130.881 200.752C129.236 200.974 127.559 200.631 126.168 199.787C124.776 198.944 123.766 197.658 123.327 196.172C122.334 193.488 121.108 190.882 119.658 188.382C118.454 186.233 116.995 184.215 115.308 182.365C113.249 180.189 111.146 177.96 109.058 175.448C106.729 172.543 104.718 169.429 103.055 166.154C101.306 162.711 99.9456 159.111 98.9947 155.409C98.051 151.704 97.5885 147.908 97.6172 144.101C97.6592 140.142 98.229 136.204 99.3137 132.375C100.472 128.266 102.131 124.292 104.258 120.529L104.548 120.046C107.29 115.682 110.771 111.755 114.858 108.415C118.917 105.129 123.538 102.492 128.532 100.611L128.953 100.463C132.684 99.0898 136.578 98.1296 140.553 97.6027C144.757 97.0561 149.015 96.9659 153.241 97.334C157.366 97.6816 161.437 98.4519 165.378 99.6307C169.325 100.775 173.119 102.329 176.689 104.264ZM171.063 221.584C168.876 225.076 165.748 227.982 161.985 230.018C158.803 231.735 155.234 232.742 151.559 232.96C147.867 233.178 144.177 232.512 140.843 231.026C138.456 229.936 136.304 228.453 134.492 226.647L171.063 221.584ZM174.543 202.633V204.849V205.614C174.651 207.067 174.651 208.526 174.543 209.979L173.818 213.176L129.504 219.273L128.735 217.635L127.01 211.081V209.173L174.427 202.633H174.543ZM148.442 73.0106C148.483 71.6521 149.102 70.3638 150.164 69.4257C151.226 68.4876 152.644 67.9756 154.111 68.0009H154.488C155.852 68.1134 157.125 68.6815 158.07 69.5992C159.068 70.5736 159.619 71.8688 159.607 73.2121C159.615 73.3015 159.615 73.3913 159.607 73.4807L159.303 84.4806C159.31 84.597 159.31 84.7135 159.303 84.8298C159.196 86.1301 158.557 87.3434 157.516 88.2221C156.476 89.1008 155.113 89.5784 153.705 89.5575H153.314C151.955 89.4638 150.683 88.9034 149.747 87.9861C148.742 87.0099 148.19 85.7082 148.21 84.3598C148.202 84.2704 148.202 84.1805 148.21 84.0911L148.5 73.0509L148.442 73.0106ZM87.3073 92.3109C86.2359 91.3745 85.6012 90.088 85.5382 88.7248C85.5052 88.0459 85.6177 87.3676 85.8694 86.7292C86.121 86.0908 86.5067 85.5049 87.0042 85.0053C87.5018 84.5058 88.1012 84.1025 88.768 83.8188C89.4348 83.5351 90.1556 83.3766 90.8889 83.3524C92.3574 83.2951 93.7908 83.7779 94.8766 84.6955L103.78 92.3915C104.857 93.3221 105.494 94.6095 105.551 95.9731C105.608 97.3367 105.081 98.666 104.084 99.671C103.069 100.665 101.675 101.253 100.198 101.31C98.7342 101.366 97.3056 100.883 96.2251 99.9665L87.3073 92.3109ZM72.8067 149.016C72.0716 149.041 71.3383 148.932 70.6488 148.695C69.9593 148.457 69.3271 148.096 68.7884 147.632C68.2497 147.168 67.815 146.61 67.5093 145.99C67.2035 145.37 67.0327 144.701 67.0065 144.02C66.971 143.346 67.081 142.672 67.33 142.038C67.579 141.404 67.962 140.822 68.4565 140.326C68.957 139.833 69.5582 139.437 70.2253 139.16C70.8923 138.883 71.612 138.732 72.3427 138.715L84.4942 138.339C85.2295 138.308 85.9641 138.413 86.6553 138.648C87.3464 138.883 87.9802 139.242 88.5199 139.706C89.0596 140.17 89.4944 140.728 89.7991 141.349C90.1037 141.969 90.2721 142.64 90.2944 143.322V143.402V143.59C90.2793 144.858 89.7634 146.076 88.8443 147.015C88.3334 147.508 87.7212 147.9 87.0438 148.17C86.3664 148.44 85.6376 148.582 84.9002 148.586H84.6827L72.6762 148.963L72.8067 149.016ZM225.933 133.047H226.121C227.511 132.969 228.882 133.376 229.964 134.189C231.104 135.059 231.832 136.307 231.994 137.667C231.994 137.667 231.994 137.801 231.994 137.828C232.061 139.145 231.581 140.434 230.654 141.434C229.726 142.433 228.421 143.065 227.006 143.201L214.912 144.557C213.445 144.696 211.979 144.291 210.834 143.43C209.69 142.568 208.961 141.322 208.807 139.964C208.658 138.603 209.097 137.243 210.03 136.183C210.963 135.122 212.312 134.448 213.781 134.309C217.812 133.906 221.872 133.477 225.918 133.114L225.933 133.047ZM201.978 88.2144C202.381 87.6511 202.901 87.1674 203.507 86.7912C204.114 86.415 204.794 86.1538 205.51 86.0227C206.226 85.8916 206.963 85.8931 207.678 86.0272C208.394 86.1614 209.073 86.4255 209.677 86.8042C210.282 87.1795 210.8 87.6626 211.201 88.2253C211.601 88.7879 211.877 89.4189 212.012 90.0813C212.294 91.4212 211.997 92.8101 211.186 93.9494L204.414 103.351C203.583 104.484 202.301 105.265 200.848 105.521C199.396 105.778 197.893 105.49 196.67 104.721C195.448 103.952 194.605 102.764 194.327 101.419C194.05 100.074 194.361 98.6817 195.191 97.5489L201.978 88.1473V88.2144ZM155.837 141.75H164.378C164.671 141.75 164.961 141.804 165.232 141.908C165.503 142.012 165.749 142.164 165.957 142.356C166.164 142.548 166.329 142.776 166.441 143.027C166.553 143.278 166.611 143.547 166.611 143.818C166.61 144.229 166.479 144.631 166.234 144.974L145.933 177.114C145.783 177.347 145.584 177.55 145.348 177.711C145.113 177.872 144.845 177.989 144.56 178.053C144.276 178.118 143.98 178.131 143.691 178.089C143.401 178.048 143.123 177.954 142.873 177.812C142.477 177.591 142.165 177.262 141.978 176.87C141.791 176.479 141.739 176.043 141.829 175.623L144.831 155.906L134.681 156.067C134.388 156.073 134.097 156.025 133.825 155.925C133.553 155.826 133.304 155.678 133.094 155.489C132.884 155.301 132.716 155.076 132.6 154.827C132.484 154.578 132.422 154.31 132.419 154.039C132.406 153.657 132.511 153.28 132.723 152.952L152.719 120.825C153.024 120.355 153.516 120.016 154.088 119.88C154.661 119.745 155.268 119.823 155.779 120.099C156.172 120.297 156.49 120.601 156.692 120.97C156.894 121.34 156.97 121.758 156.91 122.168L155.895 141.75H155.837Z" fill="white"/>
<defs>
<linearGradient id="paint0_linear_30_24" x1="25.5" y1="-14" x2="199.5" y2="283.5" gradientUnits="userSpaceOnUse">
<stop stop-color="#54F8BC"/>
<stop offset="1" stop-color="#08C07D"/>
</linearGradient>
</defs>
</svg>
